<?xml version="1.0" encoding="UTF-8"?>
<!-- Generated by Pixelmator Pro 3.7.1 -->
<svg width="310" height="387" viewBox="0 0 310 387" xmlns="http://www.w3.org/2000/svg">
    <path id="Path" fill="#75BBCE" stroke="none" d="M 303.263062 95.231812 C 299.371033 93.567566 294.93988 94.434265 291.967468 97.429077 L 211.464172 177.934448 L 164.607483 7.935242 L 164.440613 7.45105 C 163.360291 4.838745 161.32782 2.800171 158.71759 1.717834 C 156.10321 0.639526 153.23053 0.627319 150.61615 1.713745 C 148.036438 2.775757 145.944946 4.867249 144.876831 7.45105 L 97.857361 178.801147 L 17.962372 98.44635 C 14.979767 95.545105 10.573029 94.694702 6.723755 96.281616 C 2.852081 97.880737 0.341522 101.620178 0.327271 105.819397 L 0.327271 376.087128 C 0.327271 381.79187 4.967987 386.430542 10.670685 386.430542 L 123.189026 386.430542 C 125.658875 386.39801 128.049438 385.486542 129.941528 383.8508 L 152.614075 363.985901 L 172.190063 383.415405 C 174.122864 385.352264 176.694458 386.422424 179.445129 386.430542 L 299.299866 386.430542 C 305.002563 386.430542 309.64325 381.79187 309.64325 376.087128 L 309.64325 104.789917 C 309.667664 100.570374 307.165222 96.822815 303.263062 95.231812 Z M 91.985779 202.031128 L 47.065948 365.743713 L 21.018188 365.743713 L 21.40271 130.872253 L 91.985779 202.031128 Z M 144.050842 253.78894 L 142.801636 345.166718 L 119.209534 365.825073 L 68.542206 365.825073 L 108.843689 218.579773 L 144.050842 253.78894 Z M 194.850403 194.788269 L 154.64447 234.99823 L 114.794617 195.581726 L 154.685181 49.992554 L 194.850403 194.788269 Z M 217.74469 200.509338 L 288.9422 129.598694 L 288.557678 365.743713 L 262.906616 365.743713 L 217.74469 200.509338 Z M 183.200806 365.743713 L 163.077515 345.618378 L 164.328735 253.9151 L 200.479858 217.765991 L 241.019409 365.743713 L 183.200806 365.743713 Z"/>
</svg>
